<svg xmlns="http://www.w3.org/2000/svg" xmlns:xlink="http://www.w3.org/1999/xlink" width="23" height="22" viewBox="0 0 23 22"><defs><linearGradient id="b" x1="17.527%" x2="80.195%" y1="100%" y2="15.503%"><stop offset="0%" stop-color="#07D0FF"/><stop offset="100%" stop-color="#3CA4FF"/></linearGradient><path id="a" d="M194.909 6.328l-5.129-.573a.671.671 0 0 1-.483-.352L187.168.69c-.416-.921-1.097-.921-1.513 0l-2.129 4.712a.673.673 0 0 1-.484.352l-5.128.573c-1.003.112-1.213.762-.468 1.443l3.813 3.485c.14.128.223.385.185.57 0 0-.838 4.076-1.04 5.067-.204.99.347 1.392 1.223.891l4.486-2.557a.67.67 0 0 1 .598 0l4.484 2.557c.877.501 1.428.1 1.225-.891l-1.041-5.067a.673.673 0 0 1 .185-.57l3.813-3.485c.744-.681.535-1.33-.468-1.443z"/><mask id="c" width="22.823" height="22" x="-2" y="-2"><path fill="#fff" d="M175-2h22.823v22H175z"/><use xlink:href="#a"/></mask></defs><g fill="none" fill-rule="evenodd" transform="translate(-175 2)"><use fill="url(#b)" xlink:href="#a"/><use stroke="#FFF" stroke-width="4" mask="url(#c)" xlink:href="#a"/></g></svg>